<svg width="28" height="28" viewBox="0 0 28 28" fill="none" xmlns="http://www.w3.org/2000/svg">
<g id="solar:round-arrow-right-bold">
<path id="Vector" fill-rule="evenodd" clip-rule="evenodd" d="M13.9999 25.6666C20.4434 25.6666 25.6666 20.4435 25.6666 14C25.6666 7.55648 20.4434 2.33331 13.9999 2.33331C7.55642 2.33331 2.33325 7.55648 2.33325 14C2.33325 20.4435 7.55642 25.6666 13.9999 25.6666ZM14.5483 9.88165C14.7123 9.71779 14.9347 9.62575 15.1666 9.62575C15.3985 9.62575 15.6209 9.71779 15.7849 9.88165L19.2849 13.3816C19.4488 13.5457 19.5408 13.7681 19.5408 14C19.5408 14.2319 19.4488 14.4543 19.2849 14.6183L15.7849 18.1183C15.7048 18.2043 15.6082 18.2732 15.5009 18.3211C15.3935 18.3689 15.2777 18.3946 15.1602 18.3967C15.0427 18.3987 14.926 18.3771 14.8171 18.3331C14.7081 18.2891 14.6091 18.2236 14.526 18.1405C14.443 18.0574 14.3775 17.9585 14.3334 17.8495C14.2894 17.7406 14.2678 17.6239 14.2699 17.5064C14.272 17.3889 14.2977 17.273 14.3455 17.1657C14.3933 17.0584 14.4623 16.9618 14.5483 16.8816L16.5549 14.875H9.33325C9.10119 14.875 8.87863 14.7828 8.71453 14.6187C8.55044 14.4546 8.45825 14.232 8.45825 14C8.45825 13.7679 8.55044 13.5454 8.71453 13.3813C8.87863 13.2172 9.10119 13.125 9.33325 13.125H16.5549L14.5483 11.1183C14.3844 10.9543 14.2924 10.7319 14.2924 10.5C14.2924 10.2681 14.3844 10.0457 14.5483 9.88165Z" fill="black" fill-opacity="0.48"/>
</g>
</svg>
