<svg width="64" height="28" viewBox="0 0 64 28" fill="none" xmlns="http://www.w3.org/2000/svg">
<g id="Group 5">
<path id="Subtract" d="M64.0003 27.5373H50.3721L57.1862 15.6125L64.0003 27.5373Z" fill="#0088FF"/>
<path id="Subtract_2" d="M48.7887 26.6189L41.9746 14.6942L55.6028 14.6942L48.7887 26.6189Z" fill="#0088FF"/>
<path id="Subtract_3" d="M30.4212 27.5373H16.793L23.6071 15.6125L30.4212 27.5373Z" fill="#0088FF"/>
<path id="Subtract_4" d="M22.0247 12.8574H8.39648L15.2106 0.932739L22.0247 12.8574Z" fill="#0088FF"/>
<path id="Subtract_5" d="M38.8187 12.8574H25.1904L32.0045 0.932739L38.8187 12.8574Z" fill="#0088FF"/>
<path id="Subtract_6" d="M15.2106 26.6189L8.39648 14.6942L22.0247 14.6942L15.2106 26.6189Z" fill="#0088FF"/>
<path id="Subtract_7" d="M32.0045 26.6189L25.1904 14.6942L38.8187 14.6942L32.0045 26.6189Z" fill="#0088FF"/>
<path id="Subtract_8" d="M6.81412 11.9247L0 0L13.6282 1.19142e-06L6.81412 11.9247Z" fill="#0088FF"/>
<path id="Subtract_9" d="M40.401 11.9247L33.5869 0L47.2152 1.19142e-06L40.401 11.9247Z" fill="#0088FF"/>
</g>
</svg>
